  <svg xmlns="http://www.w3.org/2000/svg" xmlns:xlink="http://www.w3.org/1999/xlink" viewBox="0 0 110 110" version="1.1" x="0px" y="0px"  preserveAspectRatio="xMidYMid meet">
                    <g  stroke="#000000" stroke-width="1" fill="none" fill-opacity="0.8" fill-rule="evenodd">
                        <g fill="#efefef">
                            <path d="M80.4928487,46.1170254 C84.9000889,46.1170254 88.4857933,49.8630137 88.4857933,54.4671233 C88.4857933,54.5303327 88.4826524,54.5935421 88.476567,54.6565558 L86.5135185,74.7823875 C85.9257818,80.8080235 83.5184954,86.5005871 79.7353083,90.811546 C74.4994654,96.776908 67.3543614,99.8017613 58.498657,99.8017613 C51.7922945,99.8017613 45.22256,97.402544 39.4996848,92.8637965 C35.4620866,89.6618395 33.1741536,86.4614481 32.8347425,85.9706458 C26.9563938,78.3636008 17.3131143,60.7620352 13.4345231,53.5367906 C12.3328603,51.4847358 13.0576178,48.8925636 15.0499157,47.758317 C19.9812898,44.9516634 26.0637956,46.2818004 29.5144423,50.9209393 L36.3268095,60.0806262 L36.3268095,17.5452055 C36.3268095,15.227593 37.2600427,12.9949119 38.8870173,11.4193738 C40.4291882,9.9260274 42.4375831,9.14011742 44.5462898,9.19843444 C45.5501928,9.22759295 46.5083568,9.462818 47.3895693,9.8592955 L47.3895693,44.5639922 C47.3895693,45.104501 47.8288995,45.5424658 48.3710935,45.5424658 C48.9132875,45.5424658 49.3526178,45.104501 49.3526178,44.5639922 L49.3526178,4.17299413 C50.7077102,1.68943249 53.3493845,0 56.3793499,0 C60.7865901,0 64.3722945,3.57436399 64.3722945,7.96810176 L64.3722945,39.5520548 C65.5630797,38.8150685 66.9513476,38.3900196 68.4330566,38.3900196 C72.8404931,38.3900196 76.4260012,42.1358121 76.4260012,46.7401174 L76.4260012,47.2796477 C77.6256201,46.5379648 79.0197771,46.1170254 80.4928487,46.1170254 Z M14.9684296,21.4981018 L8.72573903,16.4466341 C8.72397229,16.4452642 8.72279446,16.4436986 8.72102771,16.4423288 C8.6680254,16.3988845 8.61718245,16.3528963 8.56908776,16.3045597 C8.55573903,16.2910568 8.54376443,16.2763796 8.53100462,16.262681 C8.49704388,16.2266732 8.46367206,16.1898826 8.43265589,16.151135 C8.41734411,16.1321526 8.40360277,16.1123875 8.38887991,16.0930137 C8.36218245,16.0570059 8.33627021,16.0208023 8.31192841,15.9830333 C8.29877598,15.962681 8.28660508,15.9417417 8.27404157,15.920998 C8.2508776,15.8818591 8.22908776,15.8419374 8.20827945,15.8012329 C8.1984642,15.7806849 8.18825635,15.7603327 8.17883372,15.739589 C8.15900693,15.6963405 8.14094688,15.6519178 8.12406467,15.606908 C8.11680139,15.5873386 8.1093418,15.5679648 8.10247113,15.5481996 C8.08657044,15.5006458 8.07322171,15.4521135 8.0608545,15.4031898 C8.05614319,15.3844031 8.05064665,15.3660078 8.04632794,15.3470254 C8.03513857,15.295362 8.02689376,15.2427202 8.01982679,15.1896869 C8.01747113,15.1726614 8.01374134,15.1560274 8.01177829,15.139002 C8.00431871,15.0693346 8,14.9988845 8,14.9272603 C8,14.855636 8.00431871,14.7849902 8.01177829,14.7155186 C8.01374134,14.6984932 8.01747113,14.6818591 8.01982679,14.6648337 C8.02689376,14.6118004 8.03513857,14.5591585 8.04632794,14.5072994 C8.05064665,14.4885127 8.05614319,14.4701174 8.0608545,14.451135 C8.07322171,14.4022114 8.08657044,14.3538748 8.10247113,14.3063209 C8.1093418,14.2863601 8.11680139,14.267182 8.12406467,14.2476125 C8.14094688,14.2026027 8.15900693,14.15818 8.17883372,14.1147358 C8.18825635,14.0941879 8.1984642,14.0738356 8.20827945,14.0532877 C8.22908776,14.0125832 8.2508776,13.9726614 8.27404157,13.9335225 C8.28660508,13.9125832 8.29877598,13.8918395 8.31192841,13.8712916 C8.33627021,13.8337182 8.36218245,13.797319 8.38887991,13.7615068 C8.40360277,13.7419374 8.41734411,13.7223679 8.43265589,13.7033855 C8.46367206,13.664638 8.49704388,13.6278474 8.53100462,13.5918395 C8.54376443,13.5779452 8.55573903,13.5634638 8.56908776,13.5499609 C8.61718245,13.5016243 8.6680254,13.4554403 8.72102771,13.4121918 C8.72279446,13.4108219 8.72397229,13.4092564 8.72573903,13.4078865 L14.9684296,8.35641879 C15.8099885,7.67481409 17.0465127,7.80299413 17.7296536,8.64232877 C18.4131871,9.48146771 18.2846074,10.713953 17.4428522,11.3949706 L15.496097,12.9703131 L30.4205658,12.9703131 C31.5045612,12.9703131 32.3836143,13.8464384 32.3836143,14.9272603 C32.3836143,16.0078865 31.5045612,16.8842074 30.4205658,16.8842074 L15.496097,16.8842074 L17.4428522,18.4595499 C18.2846074,19.1405675 18.4131871,20.3730528 17.7296536,21.2121918 C17.3419515,21.6885127 16.775612,21.9356751 16.2045612,21.9356751 C15.769746,21.9356751 15.3323788,21.7926223 14.9684296,21.4981018 Z M92.3495439,16.262681 C92.3367841,16.2763796 92.3248095,16.2910568 92.311657,16.3045597 C92.2633661,16.3528963 92.2127194,16.3988845 92.1593245,16.4423288 C92.157754,16.4436986 92.1563799,16.4452642 92.1548095,16.4464384 L85.9121189,21.4981018 C85.5483661,21.7926223 85.1108025,21.9356751 84.6759873,21.9356751 C84.1049365,21.9356751 83.538597,21.6887084 83.1508949,21.2121918 C82.4673614,20.3730528 82.5959411,19.1405675 83.4376963,18.4595499 L85.3844515,16.8842074 L70.4599827,16.8842074 C69.3759873,16.8842074 68.4969342,16.0078865 68.4969342,14.9272603 C68.4969342,13.8464384 69.3759873,12.9703131 70.4599827,12.9703131 L85.3844515,12.9703131 L83.4376963,11.3949706 C82.5959411,10.713953 82.4673614,9.48146771 83.1508949,8.64232877 C83.8338395,7.80318982 85.0701674,7.67481409 85.9121189,8.35641879 L92.1548095,13.4078865 C92.1563799,13.4092564 92.157754,13.4108219 92.1593245,13.4121918 C92.2127194,13.4554403 92.2633661,13.5016243 92.311657,13.5499609 C92.3248095,13.5634638 92.3367841,13.5779452 92.3495439,13.5918395 C92.3837009,13.6278474 92.4166801,13.664638 92.4478926,13.7033855 C92.4632044,13.7223679 92.4769457,13.7419374 92.4916686,13.7615068 C92.5181697,13.797319 92.5442783,13.8337182 92.5686201,13.8712916 C92.5819688,13.8918395 92.5941397,13.9125832 92.6065069,13.9335225 C92.6296709,13.9726614 92.651657,14.0125832 92.6720727,14.0532877 C92.6822806,14.0736399 92.6922921,14.0941879 92.7019111,14.1147358 C92.7217379,14.15818 92.7396016,14.2026027 92.7562875,14.2476125 C92.7635508,14.267182 92.7712067,14.2863601 92.7780774,14.3063209 C92.7939781,14.3538748 92.8073268,14.4022114 92.819694,14.451135 C92.8244053,14.4701174 92.8299018,14.4885127 92.8342206,14.5072994 C92.8454099,14.5591585 92.8536547,14.6116047 92.860918,14.6648337 C92.8632737,14.6818591 92.8668072,14.6984932 92.8687702,14.7155186 C92.8762298,14.7849902 92.8805485,14.855636 92.8805485,14.9272603 C92.8805485,14.9988845 92.8762298,15.0693346 92.8687702,15.139002 C92.8668072,15.1560274 92.8632737,15.1726614 92.860918,15.1896869 C92.8536547,15.2427202 92.8454099,15.295362 92.8342206,15.3470254 C92.8299018,15.3660078 92.8244053,15.3844031 92.819694,15.4031898 C92.8073268,15.4521135 92.7939781,15.5004501 92.7780774,15.5481996 C92.7712067,15.5679648 92.7635508,15.5873386 92.7562875,15.6067123 C92.7396016,15.6519178 92.7217379,15.6961448 92.7019111,15.739589 C92.6922921,15.7603327 92.6822806,15.7806849 92.6720727,15.8012329 C92.651657,15.8419374 92.6296709,15.8818591 92.6065069,15.920998 C92.5941397,15.9417417 92.5819688,15.962681 92.5686201,15.9830333 C92.5442783,16.0208023 92.5181697,16.0570059 92.4916686,16.0930137 C92.4769457,16.1123875 92.4632044,16.1321526 92.4478926,16.151135 C92.4166801,16.1898826 92.3837009,16.2264775 92.3495439,16.262681 Z" />
                        </g>
                    </g>
                </svg>